<?xml version="1.0" encoding="utf-8"?>
<!-- Generator: Adobe Illustrator 27.5.0, SVG Export Plug-In . SVG Version: 6.00 Build 0)  -->
<svg version="1.1" id="svg" xmlns="http://www.w3.org/2000/svg" xmlns:xlink="http://www.w3.org/1999/xlink" x="0px" y="0px"
	 viewBox="0 0 1024 996" style="enable-background:new 0 0 1024 996;" xml:space="preserve">
<style type="text/css">
	.st0{fill:#122B3F;}
	.st1{fill-rule:evenodd;clip-rule:evenodd;fill:#B6AFA7;}
	.st2{fill-rule:evenodd;clip-rule:evenodd;fill:#BDB9BB;}
	.st3{fill-rule:evenodd;clip-rule:evenodd;fill:#112A3E;}
	.st4{fill-rule:evenodd;clip-rule:evenodd;fill:#FFFFFF;}
	.st5{fill-rule:evenodd;clip-rule:evenodd;fill:#122B3F;}
</style>
<path class="st0" d="M112.7,308.6c0,0,75.1-250.8,348.7-294.5s405,135,405,135S1085,346.7,902.6,663l-1.3,295.8
	c0,0-263.5-51.1-309.8-26.6c-46.3,24.5-46.3,25.9-105.3,2c0,0-86.5-24.5-316.5,24.5l2.7-295.1c0,0-122-143.1-59.7-351.7"/>
<g>
	<path class="st1" d="M189.7,288.6c10.4,19.5,12.7,42.5,5.6,55.6c-3.4,6.3-10.9,14.8-13.1,14.8c-2.5,0-10.4-8.9-13.7-15.4
		c-5.4-10.9-4.3-28.6,2.8-44c3.6-7.8,11.6-19.8,13-19.4C185,280.4,187.4,284.2,189.7,288.6"/>
	<path class="st1" d="M234.6,356.1c-1.9,18.9-7.5,32-18.2,42.6c-9.4,9.3-15.6,13-21,12.4c-4.5-0.4-1.3-20.7,5.5-35.1
		c3.7-7.8,14.8-18.5,24-23.2C235.3,347.4,235.4,347.5,234.6,356.1"/>
	<path class="st1" d="M143,357.5c11.5,7.6,19.9,18.1,24,29.9c3.8,10.7,4.7,25.6,1.5,25.6c-1.9,0-13.6-8.9-19.6-14.9
		c-7.1-7.2-11.4-13.4-14.9-22c-3.3-8.1-7.4-23.6-6.5-25C128.4,349.6,135.5,352.5,143,357.5"/>
	<path class="st1" d="M235.9,431.1c-2,16.3-6.4,26.9-15.1,36.3c-10,11-24.4,19.2-27,15.4c-1.2-1.8-0.2-14.4,1.8-21.1
		c4.9-16.4,16.5-29.5,34.9-39.3C236.8,419.2,237.3,420.1,235.9,431.1"/>
	<path class="st1" d="M139,427.7c13.9,6.6,25.5,21.1,29,36.3c1.4,5.9,1.9,21.4,0.8,22.5c-0.9,0.9-12.9-7.6-20.2-14.5
		c-6.8-6.4-14.6-17.7-17.4-25.3c-2.5-6.7-5.5-21.4-4.6-22.7C127.4,422.6,129.9,423.4,139,427.7"/>
	<path class="st1" d="M236,494.9c0,3.5-3.1,19.6-4.7,24.6c-3.7,11.6-10.4,21.1-19.7,28.2c-6.5,4.9-15.4,9.6-16.8,8.7
		c-1.3-0.8-0.9-12.3,0.7-19.8c3.7-17.5,15.1-31.4,34-41.5C234.4,492.5,236,492.4,236,494.9"/>
	<path class="st1" d="M139.1,500.7c13.4,7,24,19.2,28,32.6c2.1,6.8,3.1,22.8,1.6,24.3c-1.3,1.3-14.7-8.7-21.5-16
		c-4.5-4.8-7.8-9.7-10.8-16c-4.5-9.3-8.5-22.1-8.5-26.9C128,495.3,129.2,495.5,139.1,500.7"/>
</g>
<g>
	<path class="st1" d="M882.6,288.6c2.3-4.4,4.8-8.1,5.5-8.3c1.4-0.4,9.4,11.6,13,19.4c7.1,15.4,8.2,33.1,2.8,44
		c-3.2,6.5-11.2,15.4-13.7,15.4c-2.1,0-9.6-8.5-13.1-14.8C869.9,331.1,872.2,308.1,882.6,288.6"/>
	<path class="st1" d="M837.8,356.1c-0.9-8.6-0.7-8.7,9.7-3.4c9.2,4.7,20.3,15.4,24,23.2c6.8,14.4,10,34.7,5.5,35.1
		c-5.4,0.5-11.6-3.1-21-12.4C845.2,388.1,839.6,375,837.8,356.1"/>
	<path class="st1" d="M929.3,357.5c7.6-5,14.6-8,15.6-6.5c0.9,1.4-3.2,16.9-6.5,25c-3.6,8.6-7.8,14.9-14.9,22
		c-6,6-17.7,14.9-19.6,14.9c-3.1,0-2.2-14.9,1.5-25.6C909.4,375.6,917.8,365.1,929.3,357.5"/>
	<path class="st1" d="M836.4,431.1c-1.4-11.1-0.8-11.9,5.4-8.6c18.4,9.8,30,22.8,34.9,39.3c2,6.7,3.1,19.2,1.8,21.1
		c-2.6,3.8-17-4.5-27-15.4C842.8,458,838.4,447.4,836.4,431.1"/>
	<path class="st1" d="M933.3,427.7c9.1-4.4,11.6-5.1,12.5-3.7c0.8,1.4-2.2,16.1-4.6,22.7c-2.8,7.6-10.7,19-17.4,25.3
		c-7.3,6.9-19.2,15.4-20.2,14.5c-1.2-1.2-0.6-16.6,0.8-22.5C907.8,448.9,919.4,434.4,933.3,427.7"/>
	<path class="st1" d="M836.3,494.9c0-2.4,1.6-2.4,6.5,0.3c18.8,10,30.3,24,34,41.5c1.6,7.5,2,19,0.7,19.8
		c-1.4,0.8-10.3-3.8-16.8-8.7c-9.4-7.1-16-16.5-19.7-28.2C839.4,514.5,836.3,498.4,836.3,494.9"/>
	<path class="st1" d="M933.2,500.7c9.9-5.2,11.1-5.4,11.1-2c0,4.9-4,17.6-8.5,26.9c-3,6.3-6.3,11.2-10.8,16
		c-6.8,7.3-20.2,17.3-21.5,16c-1.5-1.5-0.5-17.5,1.6-24.3C909.2,519.9,919.8,507.6,933.2,500.7"/>
</g>
<path class="st2" d="M737,544.3c28.3,4.7,61.7,12.4,83.2,19.3l10.8,3.4l0,53.2c0,29.3,0.3,98.9,0.6,154.7
	c0.3,60.5,0.2,102-0.3,102.8c-0.7,1-1.9,0.9-6.1-0.8c-14-5.5-65.6-13.3-106.6-16.1c-17.9-1.2-62.6-1.5-76.2-0.5
	c-25,1.9-51.7,7.4-68.2,14c-4.6,1.9-12.8,6.4-18.3,10.1c-5.5,3.7-10.2,6.4-10.6,6c-0.4-0.4-0.6-47.4-0.5-104.5l0.2-103.8l3.5-5.9
	c4.9-8.3,6.7-17.1,7.2-35.3c0.4-14.7,0.5-15.6,2.9-18.5c5.9-7.2,9.5-13.6,12-21.1c3.1-9.3,4.3-22,2.5-25.4c-1.7-3.2,0.3-5,11.8-10.9
	c19.6-10,42.9-17.5,65.6-21.1c17.4-2.8,17.7-2.8,45.5-2.5C717.7,541.7,723.8,542.2,737,544.3"/>
<path class="st2" d="M415.7,544.5c31.9,3.7,54.8,11.2,75.3,24.7l6.5,4.3l0.7,9.1c1.1,14,5.4,23.9,16.9,38.2l4.2,5.3l0.8,16.7
	c0.8,18.1,2.1,24,7,32.7l2.9,5.2l-0.3,105.6l-0.3,105.6l-5.8-4.3c-15.3-11.5-40.9-20.2-70.1-24c-37.7-4.9-72.8-5.5-112.7-2
	c-25.9,2.3-61.3,8.2-80.3,13.5c-12.3,3.4-14.3,3.6-15.1,1.4c-1.1-2.8-0.7-309.2,0.4-309.9c4-2.5,48.9-14.7,67.8-18.4
	C343.5,542.2,383.6,540.8,415.7,544.5"/>
<path class="st2" d="M223.2,745.2l0.3,163.2l3.5-0.2c1.9-0.1,17.4-2,34.5-4.2c67.3-8.8,102.1-11.4,150-11.5
	c34.1,0,39.8,0.2,54.9,2.3c28.7,3.9,48.4,10,63.5,19.9c3.5,2.3,6.7,4.2,7,4.2c0.3,0,3.3-1.6,6.6-3.5c22.6-13.1,37.4-17.5,72.4-21.7
	c16-1.9,77.4-1.6,103.6,0.6c46,3.8,94.2,9.2,121.3,13.5c6.2,1,11.5,1.6,11.8,1.3c0.3-0.3,0.5-73.8,0.5-163.5
	c0-89.6,0.2-163.2,0.6-163.6c0.3-0.3,3.5,0.9,7,2.8l6.4,3.4L866.8,754c-0.3,164.9-0.3,165.5-2.3,165.4c-1.1-0.1-11.2-1.5-22.5-3.2
	c-74.6-11.1-172.7-17.6-216-14.3c-32.8,2.5-51.1,6.9-71.5,17.1c-8.4,4.2-15.2,7-17.1,7c-1.8,0-8.6-2.8-16.5-6.8
	c-28.8-14.7-57-19-117.4-17.9c-46.4,0.8-88.6,4.3-154.1,12.7c-17.1,2.2-32.9,4-35.1,4c-3.7,0-4.1-0.3-4.6-3.1
	c-0.3-1.7-0.6-75.8-0.6-164.6l0-161.6l5.3-3.3c2.9-1.8,6.1-3.3,7-3.4C222.9,582,223,590.6,223.2,745.2"/>
<path class="st3" d="M720.2,589c2.8,0.7,4.8,1.7,4.8,2.6c0,1.5-0.9,1.7-10.5,3.3c-8.8,1.4-16.4,4.6-24.4,10.2
	c-31.9,22.4-37.6,68.4-12.1,98.5c13.8,16.3,31.9,24.9,51.4,24.4c6.3-0.2,8.1,0.1,8.1,1.2c0,1.9-6.6,5.5-16,8.6
	c-7.5,1.9-9,2.1-23.5,2.7c-13.1-0.9-16.4-0.6-23.5-2.3c-13.3-3.9-22.8-9.5-33.1-19.7c-7.9-7.8-9.8-10.4-14.2-19.2
	c-6.7-13.5-8.6-22.2-8-36.7c0.4-9.1,1-12.8,3.5-19.9c9.2-26.5,30.6-44.9,58.1-52.2c6.3-1.7,9.7-2.8,21.2-3.1
	C709.4,587.6,717.6,588.4,720.2,589"/>
<path class="st3" d="M399.2,617.2c-0.3,19.3,0,24.6,1,26.1c1.2,1.7,3.8,1.9,28.6,2.4l27.2,0.6v22.3V691h-28h-28v27.5V746h-22h-22
	v-25.7c0-22.5-0.2-25.9-1.7-27.5c-1.5-1.7-3.7-1.8-26-1.8H304v-20.9c0-11.5-0.3-21.6-0.6-22.5c-0.5-1.4,2-1.6,24.9-1.6
	c20.9,0,25.7-0.3,26.7-1.4c0.9-1,1.1-8.2,0.9-26.5l-0.3-25.1l22,0h22L399.2,617.2"/>
<g>
	<g>
		<path class="st1" d="M553,64.6c3.5,1.2,6.8,3.5,11.1,7.8c8.1,8.1,10.7,14.6,10.8,27.1c0.1,7.9-0.3,9.7-2.7,14.7
			c-3.1,6.4-8.7,11.5-16.3,15c-7.3,3.3-20.9,3.3-27.9-0.2c-6.9-3.4-14.9-11.9-17.7-18.9c-3.4-8.6-3.2-21.7,0.4-29.2
			C518.5,65,535.2,58.6,553,64.6"/>
		<path class="st1" d="M422.7,91.5c15.6,3.2,29,12.7,37.2,26.2c2.1,3.4,6.4,13.5,9.6,22.3c3.2,8.8,7,17.8,8.5,20
			c3.5,5.1,9.8,8.1,18.1,8.8c5.4,0.4,6.8,0.9,8.4,3c2.2,2.8,5.5,13.1,6.5,20.5c0.8,5.6,1.6,5.4-12.6,2.8
			c-18.9-3.4-31.1-9.3-40.4-19.3c-6-6.5-8.8-11.4-16.3-28.3c-11-25.1-21.7-33.5-40.6-32.3c-11.7,0.8-13,1.5-69.3,41.9
			c-28.4,20.4-29.5,21.2-44.8,30.6c-26.2,16.2-49.4,28.1-60,30.8c-11.3,2.9-23.7,1.5-33.9-3.7c-3.6-1.8-3.7-2.1-2.4-4.1
			c0.8-1.2,7.2-5.3,14.3-9c33.1-17.5,64.3-36.8,104.4-64.5c39.9-27.6,52-35,67-41C391.5,90.2,408.1,88.5,422.7,91.5"/>
		<path class="st1" d="M691.8,91.5c15.8,3.3,29,10.9,87.6,50c46.4,30.9,74.6,47.4,108.3,63c4.7,2.2,4.8,4.4,0.4,8.3
			c-7.2,6.3-25.4,7.6-38.6,2.7c-8.2-3-31.5-14.4-42.5-20.8c-11.7-6.8-48.5-31.3-76.5-51.1c-14.6-10.3-30.3-20.6-34.9-22.9
			c-8.3-4.2-8.6-4.2-19-4.2c-9.2,0-11.2,0.3-15.6,2.5c-9.3,4.6-13.1,9.6-25,33.1c-9.2,18.1-11.7,22.4-16.4,27
			c-6.1,6.1-17.6,12.9-25.9,15.3c-7.3,2.1-21.6,4-24.8,3.2l-2.6-0.7l0.6-8.2c0.3-4.5,1.3-10.3,2.2-12.9c1.8-5.3,3.5-6.2,13.9-7.2
			c13.5-1.4,19.9-9.3,28.4-34.7c3.9-11.8,8.5-19.6,15.9-27.2c6.8-6.9,18.2-12.9,28.7-15.1C665.1,89.7,683.2,89.7,691.8,91.5"/>
		<path class="st1" d="M688.5,129.5c5.3,2.8,12.4,7.7,51.8,35.8c19.9,14.2,36.2,26.2,36.2,26.7c0,0.4-1.9,1.6-4.2,2.7
			c-3.3,1.5-6.5,1.9-14.2,1.9c-9.1,0-10.7-0.3-17.6-3.3c-12.1-5.2-35.1-21-71.6-49.3c-11.6-9-12.1-9.5-10.5-11.3
			c3.6-3.9,15.1-6.8,22.7-5.6C683.2,127.4,686.6,128.5,688.5,129.5"/>
		<path class="st1" d="M413,131c2.2,1,4.8,2.7,5.8,3.8c1.8,2,1.7,2.2-10.5,11.5c-29.1,22.3-63.8,46.8-72.6,51.2
			c-7.6,3.8-12.4,3.4-22.3-1.7c-4.5-2.3-8.3-4.5-8.3-4.9c-0.1-0.8,50.3-37.3,66.9-48.5c14.4-9.7,19.4-12.3,25.4-13.3
			C403,128.1,407.7,128.7,413,131"/>
		<path class="st1" d="M552.4,142c5.6,0.8,6.9,1.5,10.8,5.2c4.8,4.7,5.8,7.6,2.1,6.3c-1.2-0.4-13.2-0.9-26.5-1
			c-13.4-0.1-24.5-0.5-24.8-0.7c-0.9-0.9,3.9-4.9,8.2-6.8C529.7,141.4,541.2,140.3,552.4,142"/>
		<path class="st1" d="M433.6,158.8l5.6,11.2l-5.1,2.9c-2.8,1.6-10.7,7.6-17.6,13.3c-16.6,13.8-29.4,23.4-35.5,26.5
			c-8.9,4.6-24.9,4.1-37.6-1l-3.3-1.4l8.9-5.9c4.9-3.3,24.2-17.5,42.9-31.7c18.7-14.1,34.5-25.6,35.1-25.4S430.5,152.7,433.6,158.8"
			/>
		<path class="st1" d="M659.5,151.6c3.4,2.5,11.5,8.7,17.9,13.8c17.2,13.7,34,25.9,48.9,35.7c9.8,6.4,12.9,8.9,12,9.7
			c-2.8,2.2-7.6,4.1-13.3,5.3c-14.6,2.9-30.5-4.5-54.9-25.5c-5-4.3-13.4-11.3-18.8-15.7c-5.4-4.4-9.7-8.3-9.5-8.6
			c2.6-5.7,10.2-19.2,10.8-19.2C652.9,147,656.1,149.1,659.5,151.6"/>
		<path class="st1" d="M554.6,163c1.9,1,1.9,2.4,1.9,32.8c0,17.4-0.3,59-0.7,92.3l-0.7,60.6l-5.6,0.7c-3.1,0.4-9.1,1.6-13.5,2.7
			s-8.5,1.8-9.1,1.6c-1.2-0.5-1.7-28.4-2.8-159.6l-0.3-30.5l8-0.6C546,161.9,552.6,162,554.6,163"/>
		<path class="st1" d="M646.8,185.3c23.1,20.7,29.9,26.6,37.6,32.7l8.2,6.5l-3.3,1.4c-1.8,0.8-7.3,1.6-12.3,1.8
			c-15.6,0.8-24.9-4-44.7-22.8l-11.7-11.1l7.7-8.4c4.3-4.6,8.1-8.4,8.5-8.4C637.2,177,641.7,180.7,646.8,185.3"/>
		<path class="st1" d="M449.8,185c3.2,3.8,6.2,7,6.8,7c2.8,0-0.5,4.1-13.3,16.6c-15.2,14.8-20.8,18.5-30.7,20.4c-3,0.6-7,0.8-9,0.4
			c-6.6-1.1-15.1-3.7-14.8-4.5c0.2-0.4,9.7-9.1,21.3-19.2c11.5-10.1,23.2-20.5,26-23c2.8-2.5,5.7-4.6,6.5-4.6
			C443.3,178,446.6,181.2,449.8,185"/>
		<path class="st1" d="M320.1,209l6.4,1.7l-3.2,3.1c-4.6,4.3-20.4,15.4-28,19.7c-16.1,9-36.6,12.8-49.3,9.2
			c-7.8-2.2-14.6-6.2-14.2-8.3c0.2-1,5.4-3.8,13.3-7.2c14.9-6.5,21.8-9.9,40.4-20.3l13.4-7.5l7.5,4C310.4,205.5,316.6,208,320.1,209
			"/>
		<path class="st1" d="M616.5,203.6c3.7,4.7,23.1,24.1,28.9,28.8c4.4,3.6,3.7,4-9.9,6.1c-22.6,3.5-36.5-2.5-47-20.3
			c-5-8.4-5.4-7.6,6.5-12.3c4.4-1.7,9.6-3.9,11.5-5C611.5,198.3,612.6,198.6,616.5,203.6"/>
		<path class="st1" d="M796.3,206.5c16.6,8.7,34.7,16.8,48,21.6c5.1,1.8,9.2,3.7,9.2,4.1c0,2.2-7.5,7.9-12.2,9.3
			c-13.7,4.1-34,0.8-52.1-8.3c-11.1-5.6-36.7-21.1-36.7-22.2c0-0.3,3.3-1.3,7.2-2.3c4-1,10.4-3.5,14.2-5.6c3.8-2.1,7.2-3.9,7.4-4
			C781.6,199.1,788.3,202.4,796.3,206.5"/>
		<path class="st1" d="M481.5,204.1c7.4,1.7,14.5,3.3,15.8,3.5c2.3,0.4,2.3,0.4-1.4,7.5c-5.4,10.3-11.2,16.2-20,20.5
			c-6.8,3.3-8.4,3.7-17.7,4.1c-9.4,0.4-25.8-1.6-27.6-3.3c-0.3-0.3,2.5-3.4,6.4-6.7c3.8-3.4,12.2-11.2,18.5-17.4
			c6.3-6.2,11.7-11.3,12-11.3C467.8,201,474.1,202.4,481.5,204.1"/>
		<path class="st1" d="M751.6,225.9c8.5,6.9,20.7,14.9,32.3,21.3c5.4,3,9.9,5.9,10,6.4c0.3,1.7-10.9,6.5-17.8,7.6
			c-5,0.8-8.3,0.8-12.9,0c-8.5-1.6-24.8-9.9-33.1-16.9c-3.8-3.2-9.4-7.7-12.5-10.1c-3.1-2.4-5.7-4.7-5.9-5.1
			c-0.2-0.4,3.2-1.1,7.5-1.4c6.1-0.4,18.1-3.5,26-6.6C745.4,221,748.2,223.2,751.6,225.9"/>
		<path class="st1" d="M343,225c5,1.8,7.6,2.1,16.2,1.8c5.6-0.2,10.2-0.1,10.2,0.3c0,0.9-14.7,13.2-22.9,19.2
			c-3.5,2.6-10.2,6.6-14.9,8.9c-8.4,4.1-8.8,4.2-18.6,4.2c-8.4,0-11-0.4-16-2.5c-3.3-1.4-6.1-3-6.3-3.5c-0.2-0.6,6.1-5.4,13.9-10.7
			c7.8-5.3,17.4-12.1,21.3-15.2C333.6,221.6,333.4,221.6,343,225"/>
		<path class="st1" d="M407.1,238.4c7.2,0,12.9,0.4,12.7,0.9c-0.3,0.4-4.9,4.5-10.3,9c-18.1,15.2-28.7,19.8-45,19.9
			c-9.7,0.1-21.4-1.7-20.8-3.2c0.2-0.4,5.3-4.5,11.3-9.1c6-4.5,14.5-11.3,18.7-15l7.7-6.8l6.3,2.1
			C392.7,237.9,396.7,238.4,407.1,238.4"/>
		<path class="st1" d="M709.3,242.8c5.3,4.8,13.7,11.9,18.5,15.7c10.1,7.8,10.1,7.9-1.7,9.7c-15.2,2.4-26.8-1.9-49.4-18.1
			c-7.8-5.6-14.2-10.4-14.2-10.5c0-0.1,4.4-0.3,9.8-0.3c7.7,0,11.3-0.5,17.2-2.6c4.1-1.4,8.1-2.6,8.8-2.6
			C699,234,704,237.9,709.3,242.8"/>
		<path class="st1" d="M492.1,269c8.1,2.8,12.6,5.9,16.2,11.5c9.1,13.7,3.1,28.2-13.7,33.2c-7.7,2.2-17,0.8-32.8-5.1
			c-13.3-5-15.4-5.3-17.7-3.1c-1.9,1.9-3.1,9.2-2.1,13.6c2.8,13.4,20,24.4,49.2,31.6c8.1,2,15.2,4,15.7,4.4s-2.2,2.3-6,4.2
			s-10.7,6.2-15.3,9.6c-4.6,3.4-9,6.1-9.7,6.1c-2.9,0-22.6-7.5-30.6-11.7c-16.1-8.4-30-22.4-35-35c-1.8-4.5-2.3-7.9-2.3-15.3
			c-0.1-8.8,0.2-10,3.2-16.2c5.8-11.7,19-21.6,35.3-26.3C463.1,265.8,481,265.2,492.1,269"/>
		<path class="st1" d="M629.3,269.1c23.3,5.9,39.7,22.9,40.9,42.2c0.8,13.2-3.4,23.2-14.7,35c-15,15.6-34.7,24.6-88.7,40.7
			c-50.1,14.9-55.7,17.4-60.2,26.1c-5.8,11.3-3.8,20.9,6.8,32.2l6.9,7.4l-12.3,6.3c-9.3,4.7-12.9,6.1-14.6,5.5
			c-3.7-1.2-15.2-13.6-18.6-20c-7.9-15.1-8.3-32.6-1-44.5c10.6-17.3,29.9-27,84.7-42.4c28.1-7.9,40.2-12,51.5-17.6
			c18-8.8,27.5-18.5,27.5-28c0-2.5-0.5-5.1-1.2-5.8c-2.2-2.2-8.9-1.3-18.7,2.7c-20.9,8.4-35.4,7.9-44.2-1.6
			c-5.9-6.3-7.8-13.6-5.4-20.3C574,270.1,601.5,262,629.3,269.1"/>
		<path class="st1" d="M602.8,399.2c7.1,14.4,7,27.6-0.3,42.4c-6.6,13.4-16.8,23-34.5,32.3c-24.3,12.8-28.8,15.3-34.2,19.4
			c-3.3,2.4-7.2,5.9-8.5,7.8c-5.2,6.9-5.8,17.2-1.6,26.7c1.1,2.4,1.9,4.5,1.9,4.7c0,0.2-1.4,0.6-3,1c-1.7,0.4-5.4,3-8.6,6l-5.5,5.4
			l-6.4-6.5c-13.7-13.9-18-32.5-10.9-46.8c6.5-12.9,13.4-18.2,42.9-33c11.5-5.8,23.3-12.2,26.1-14.3c5.6-4.2,10.5-10.8,12.4-16.8
			c2-6.4-0.5-15.8-5.3-19.7l-2.1-1.7l2.4-1.3c3.7-2,29.3-12.8,30.6-12.9C598.7,392,600.9,395.3,602.8,399.2"/>
		<path class="st1" d="M551,421.6v15.9l-8.9,3.8c-6.5,2.8-9.2,3.5-10,2.7c-0.7-0.7-1.1-6.7-1.1-16.6c0-14.5,0.1-15.6,2-16.6
			c3-1.6,15.9-5.7,17-5.3C550.6,405.6,551,411.8,551,421.6"/>
		<path class="st1" d="M581.2,488.2c4.4,7.3,6.1,11.8,6.8,17.9c1.3,11.3-3.6,25.3-12,34.1c-4,4.2-12.3,10.6-30.2,23.3
			c-8.3,5.9-18.5,17.1-21.7,23.9c-1.5,3.2-3.3,9.2-4,13.2c-0.6,4-1.4,7.4-1.7,7.4c-0.8,0-5.5-9.7-7-14.5c-0.7-2.2-1.3-9-1.4-15
			c-0.1-9.9,0.2-11.6,2.6-16.6c3.5-7.4,8.3-12.6,20.4-22c5.5-4.3,11.5-9.3,13.3-11.1c4.1-4.2,7.8-11.8,9.3-19c1.1-5.2,1-5.9-1.1-9.4
			c-1.2-2.1-1.9-4.2-1.4-4.6c0.9-0.9,23.4-12.8,24.3-12.8C577.8,483,579.5,485.4,581.2,488.2"/>
		<path class="st1" d="M544,501c1.4,2.3-5.9,25-8,25c-1.1,0,0.6-16.2,2.2-19.9C540.4,500.6,542.6,498.7,544,501"/>
		<path class="st1" d="M549.6,589.6c-1.9,16.3-4.1,26.7-6.7,31.6c-1.7,3.3-7.3,9.8-8.4,9.8c-2,0-4.5-11.9-4.5-21.5
			c0-12.3,2.1-18.7,8.5-25.8c4.3-4.8,12-11,12.6-10.4C551.3,573.5,550.6,580.8,549.6,589.6"/>
		<path class="st1" d="M544.6,653.7c-0.5,4.8-1.5,10.1-2.1,11.8c-1.1,2.9-1.2,3-2.7,1c-2.6-3.5-8.3-15.4-8.3-17.2
			c0-1.1,2.7-3.4,6.8-6l6.7-4.2l0.3,2.9C545.5,643.6,545.2,648.9,544.6,653.7"/>
	</g>
	<path class="st4" d="M471.5,280.3c-3.7,1.3-4.7,3.6-3.5,8.4c0.8,3.2,6.3,5.5,12.4,5.1c3.8-0.2,4.9-0.8,6.1-2.9
		C490.3,283.8,480.9,277.1,471.5,280.3"/>
	<path class="st4" d="M604.5,280.1c-3.9,1.6-5.9,3.9-6.6,7.7c-0.8,4.3,1.2,6.2,6.6,6.2c4,0,11.9-3.6,13.4-6.1
		C621.3,282.2,612.4,277,604.5,280.1"/>
</g>
<g>
	<path class="st5" d="M357.1,775c-22.3,1.7-70,9.5-72.4,11.9c-0.5,0.5-0.5,3.4-0.2,6.6l0.7,5.7l3.1-0.6c29.8-6.2,58.9-8.9,95.6-8.9
		c41.5,0,63.4,2.7,97.5,12.2c7.7,2.1,14.5,3.7,15.2,3.4c1.7-0.6,3.6-7,2.9-9.7c-0.9-3.8-11.9-8.3-32.9-13.6
		c-25-6.3-32.4-7.2-66.7-7.5C382.7,774.3,363.3,774.6,357.1,775"/>
	<path class="st5" d="M369,810.6c-29.3,1.2-81.4,8.4-84.8,11.7c-1,1-1,2.4-0.1,6.7c0.6,3,1.2,5.6,1.4,5.7c0.1,0.1,3.8-0.4,8.1-1.2
		c28.3-5.3,54.6-7.6,85.2-7.6c41.8,0,67.7,3.7,111,15.8c7.4,2.1,8.4,1.4,8-5.2c-0.2-3.8-0.6-4.2-5.8-6.7c-8.7-4.3-28.4-10.4-42-13.2
		C429.3,812.5,392.2,809.7,369,810.6"/>
</g>
<g>
	<path class="st5" d="M730.5,775c-6.3-0.5-25.6-0.7-42.9-0.6c-34.3,0.3-41.7,1.1-66.7,7.5c-21,5.3-31.9,9.9-32.9,13.6
		c-0.7,2.8,1.2,9.1,2.9,9.7c0.7,0.2,7.5-1.3,15.2-3.4c34.1-9.5,56-12.2,97.5-12.2c36.7,0,65.8,2.7,95.6,8.9l3.1,0.6l0.7-5.7
		c0.4-3.1,0.3-6.1-0.2-6.6C800.5,784.6,752.8,776.8,730.5,775"/>
	<path class="st5" d="M718.5,810.6c-23.2-0.9-60.3,1.8-81,6c-13.6,2.7-33.3,8.9-42,13.2c-5.2,2.5-5.5,2.9-5.8,6.7
		c-0.4,6.6,0.6,7.3,8,5.2c43.3-12.1,69.3-15.8,111-15.8c30.5,0,56.9,2.4,85.2,7.6c4.3,0.8,8,1.4,8.1,1.2c0.1-0.1,0.7-2.7,1.4-5.7
		c0.9-4.3,0.9-5.7-0.1-6.7C799.9,819,747.9,811.8,718.5,810.6"/>
</g>
<g>
	<polyline class="st4" points="379.8,419.7 379.8,512.9 357.6,513.3 335.3,513.7 335.3,419.8 335.3,326 357.6,326.2 379.8,326.5 
		379.8,419.7 	"/>
	<path class="st4" d="M308.5,379.2c0.2,1.8,0.2,34,0,71.5l-0.3,68.2H304c-4.6,0-20,2.8-31,5.5c-3.7,0.9-7,1.5-7.2,1.3
		c-0.2-0.2-0.5-34-0.7-75.1l-0.3-74.7l21.7,0h21.7L308.5,379.2"/>
	<path class="st4" d="M441.8,423.2c0.4,9.5,0.5,34.8,0.4,56.2c-0.3,38.3-0.3,39-2.3,38.8c-13.1-1.6-19.2-2.3-25.8-2.8l-7.8-0.6
		v-54.4V406h17.4h17.4L441.8,423.2"/>
</g>
<g>
	<polyline class="st4" points="697.6,419.7 697.6,326.5 719.9,326.2 742.1,326 742.1,419.8 742.1,513.7 719.9,513.3 697.6,512.9 
		697.6,419.7 	"/>
	<path class="st4" d="M769,379.2l0.3-3.2H791l21.7,0l-0.3,74.7c-0.2,41.1-0.5,74.9-0.7,75.1c-0.2,0.2-3.5-0.4-7.2-1.3
		c-11-2.8-26.5-5.5-31-5.5h-4.2l-0.3-68.2C768.8,413.2,768.8,381,769,379.2"/>
	<path class="st4" d="M635.7,423.2l0.7-17.2h17.4h17.4v54.4v54.4l-7.8,0.6c-6.5,0.5-12.7,1.2-25.8,2.8c-2,0.2-2-0.4-2.3-38.8
		C635.2,458,635.3,432.7,635.7,423.2"/>
</g>
</svg>
