<?xml version="1.0" encoding="utf-8"?>
<!-- Generator: Adobe Illustrator 27.5.0, SVG Export Plug-In . SVG Version: 6.00 Build 0)  -->
<svg version="1.1" id="Layer_1" xmlns="http://www.w3.org/2000/svg" xmlns:xlink="http://www.w3.org/1999/xlink" x="0px" y="0px"
	 viewBox="0 0 405 809" style="enable-background:new 0 0 405 809;" xml:space="preserve">
<style type="text/css">
	.st0{fill:#0E273C;}
	.st1{fill:#87CEFA;}
	.st2{fill:#BDB9BB;}
</style>
<path class="st0" d="M-358.4,358.7l64.5-64.5l0.1-0.1h121.3l-48.3,48.3l-12.5,12.5l-49.4,49.4l6.1,6.1L0.3,687.3l283-283l-49.4-49.4
	l-3.5-3.5l-57.2-57.2h121.3l0.1,0.1l50.5,50.5l59.5,59.5L0.3,808.6L-404,404.3L-358.4,358.7z M0.3,0l233.6,233.6H112.6L0.3,121.3
	L-112,233.6h-121.3L0.3,0z"/>
<path class="st1" d="M-506.4,358.7l64.5-64.5l0.1-0.1h121.3l-48.3,48.3l-12.5,12.5l-49.4,49.4l6.1,6.1l276.9,276.9l283-283
	l-49.4-49.4l-3.5-3.5l-57.2-57.2h121.3l0.1,0.1l50.5,50.5l59.5,59.5l-404.3,404.3L-552,404.3L-506.4,358.7z M-147.7,0L85.9,233.6
	H-35.4l-112.3-112.3L-260,233.6h-121.3L-147.7,0z"/>
<path class="st2" d="M-647.4,358.7l64.5-64.5l0.1-0.1h121.3l-48.3,48.3l-12.5,12.5l-49.4,49.4l6.1,6.1l276.9,276.9l283-283
	l-49.4-49.4l-3.5-3.5l-57.2-57.2H5.5l0.1,0.1l50.5,50.5l59.5,59.5l-404.3,404.3L-693,404.3L-647.4,358.7z M-288.7,0l233.6,233.6
	h-121.3l-112.3-112.3L-401,233.6h-121.3L-288.7,0z"/>
</svg>
